<svg width="12" height="12" viewBox="0 0 12 12" fill="none" xmlns="http://www.w3.org/2000/svg">
<path d="M10.02 0H1.98C1.302 0 0.75 0.552 0.75 1.236V9.348C0.75 10.032 1.302 10.584 1.98 10.584H8.784L8.466 9.474L9.234 10.188L9.96 10.86L11.25 12V1.236C11.25 0.552 10.698 0 10.02 0ZM7.704 7.836C7.704 7.836 7.488 7.578 7.308 7.35C8.094 7.128 8.394 6.636 8.394 6.636C8.148 6.798 7.914 6.912 7.704 6.99C7.404 7.116 7.116 7.2 6.834 7.248C6.32013 7.34261 5.79312 7.34058 5.28 7.242C4.97875 7.18305 4.68352 7.0967 4.398 6.984C4.24749 6.92612 4.10115 6.85796 3.96 6.78C3.942 6.768 3.924 6.762 3.906 6.75C3.894 6.744 3.888 6.738 3.882 6.732C3.774 6.672 3.714 6.63 3.714 6.63C3.714 6.63 4.002 7.11 4.764 7.338C4.584 7.566 4.362 7.836 4.362 7.836C3.036 7.794 2.532 6.924 2.532 6.924C2.532 4.992 3.396 3.426 3.396 3.426C4.26 2.778 5.082 2.796 5.082 2.796L5.142 2.868C4.062 3.18 3.564 3.654 3.564 3.654C3.564 3.654 3.696 3.582 3.918 3.48C4.56 3.198 5.07 3.12 5.28 3.102C5.316 3.096 5.346 3.09 5.382 3.09C6.42246 2.94917 7.48062 3.14692 8.4 3.654C8.4 3.654 7.926 3.204 6.906 2.892L6.99 2.796C6.99 2.796 7.812 2.778 8.676 3.426C8.676 3.426 9.54 4.992 9.54 6.924C9.54 6.924 9.03 7.794 7.704 7.836Z" fill="white"/>
</svg>
