<svg width="12" height="11" viewBox="0 0 12 11" fill="none" xmlns="http://www.w3.org/2000/svg">
<path d="M3.7695 10.25C8.298 10.25 10.7752 6.49778 10.7752 3.24953C10.7752 3.14453 10.7753 3.03803 10.7708 2.93303C11.253 2.5839 11.6693 2.15165 12 1.65653C11.5495 1.85517 11.0721 1.98609 10.5833 2.04503C11.0982 1.73726 11.4838 1.25301 11.6685 0.682282C11.1847 0.968875 10.6553 1.17006 10.1032 1.27703C9.73214 0.881799 9.24105 0.61997 8.70606 0.5321C8.17107 0.44423 7.62204 0.535223 7.144 0.790985C6.66597 1.04675 6.2856 1.453 6.06184 1.94683C5.83807 2.44065 5.78338 2.99448 5.90625 3.52253C4.92731 3.47345 3.96961 3.21913 3.09528 2.77609C2.22095 2.33304 1.44951 1.71116 0.831 0.950782C0.517005 1.49309 0.42118 2.13458 0.562985 2.74498C0.704789 3.35538 1.07359 3.88893 1.5945 4.23728C1.20415 4.22402 0.822391 4.1192 0.48 3.93128V3.96503C0.480673 4.53314 0.67748 5.0836 1.03716 5.52335C1.39683 5.96311 1.89731 6.26519 2.454 6.37853C2.2427 6.43674 2.02442 6.46576 1.80525 6.46478C1.65074 6.46525 1.49654 6.45093 1.34475 6.42203C1.50209 6.91107 1.80845 7.33866 2.22094 7.64489C2.63342 7.95112 3.13135 8.12067 3.645 8.12978C2.77242 8.81513 1.69455 9.18684 0.585 9.18503C0.389491 9.18586 0.194117 9.17459 0 9.15128C1.12614 9.86923 2.43397 10.2504 3.7695 10.25Z" fill="white"/>
</svg>
